<svg width="116" height="24" viewBox="0 0 116 24" fill="none" xmlns="http://www.w3.org/2000/svg">
<path d="M32.248 9.424C32.696 8.56 33.32 7.904 34.152 7.424C34.968 6.944 35.928 6.704 37.032 6.704C38.312 6.704 39.384 7.056 40.248 7.76C41.096 8.464 41.624 9.424 41.816 10.608H39.992C39.8 9.904 39.448 9.344 38.92 8.928C38.392 8.528 37.752 8.32 36.984 8.32C36.28 8.32 35.656 8.496 35.128 8.848C34.6 9.2 34.2 9.68 33.912 10.288C33.624 10.896 33.48 11.6 33.48 12.4C33.48 13.2 33.608 13.92 33.896 14.528C34.184 15.136 34.584 15.616 35.112 15.968C35.64 16.32 36.264 16.48 36.968 16.48C37.864 16.48 38.6 16.24 39.208 15.744C39.816 15.264 40.136 14.576 40.184 13.696V13.424H37.08V11.872H41.944V18H40.552L40.36 16.4C40.04 16.88 39.576 17.28 38.984 17.6C38.392 17.936 37.688 18.096 36.888 18.096C35.848 18.096 34.936 17.872 34.136 17.392C33.336 16.912 32.712 16.24 32.264 15.376C31.816 14.512 31.592 13.52 31.592 12.4C31.592 11.28 31.8 10.288 32.248 9.424ZM45.0888 17.584C44.4488 17.232 43.9688 16.752 43.6168 16.112C43.2648 15.472 43.1048 14.736 43.1048 13.904C43.1048 13.088 43.2648 12.368 43.6168 11.728C43.9688 11.088 44.4488 10.592 45.0888 10.24C45.7288 9.888 46.4488 9.712 47.2808 9.712C48.0968 9.712 48.8168 9.888 49.4568 10.24C50.0968 10.592 50.5768 11.088 50.9288 11.728C51.2808 12.368 51.4568 13.088 51.4568 13.904C51.4568 14.736 51.2808 15.472 50.9288 16.112C50.5768 16.752 50.0968 17.232 49.4568 17.584C48.8168 17.936 48.0968 18.096 47.2808 18.096C46.4488 18.096 45.7288 17.936 45.0888 17.584ZM49.0248 15.872C49.4728 15.36 49.6968 14.704 49.6968 13.904C49.6968 13.104 49.4728 12.464 49.0248 11.952C48.5768 11.44 48.0008 11.184 47.2808 11.184C46.5448 11.184 45.9688 11.44 45.5368 11.952C45.0888 12.464 44.8808 13.104 44.8808 13.904C44.8808 14.704 45.0888 15.36 45.5368 15.872C45.9688 16.384 46.5448 16.624 47.2808 16.624C48.0008 16.624 48.5768 16.384 49.0248 15.872ZM56.652 11.328H55.228V9.808H56.652V7.52H58.396V9.808H60.364V11.328H58.396V15.6C58.396 15.92 58.46 16.16 58.588 16.288C58.716 16.416 58.924 16.48 59.244 16.48H60.556V18H58.892C58.108 18 57.532 17.824 57.18 17.456C56.828 17.104 56.652 16.544 56.652 15.776V11.328ZM62.5835 17.584C61.9435 17.232 61.4635 16.752 61.1115 16.112C60.7595 15.472 60.5995 14.736 60.5995 13.904C60.5995 13.088 60.7595 12.368 61.1115 11.728C61.4635 11.088 61.9435 10.592 62.5835 10.24C63.2235 9.888 63.9435 9.712 64.7755 9.712C65.5915 9.712 66.3115 9.888 66.9515 10.24C67.5915 10.592 68.0715 11.088 68.4235 11.728C68.7755 12.368 68.9515 13.088 68.9515 13.904C68.9515 14.736 68.7755 15.472 68.4235 16.112C68.0715 16.752 67.5915 17.232 66.9515 17.584C66.3115 17.936 65.5915 18.096 64.7755 18.096C63.9435 18.096 63.2235 17.936 62.5835 17.584ZM66.5195 15.872C66.9675 15.36 67.1915 14.704 67.1915 13.904C67.1915 13.104 66.9675 12.464 66.5195 11.952C66.0715 11.44 65.4955 11.184 64.7755 11.184C64.0395 11.184 63.4635 11.44 63.0315 11.952C62.5835 12.464 62.3755 13.104 62.3755 13.904C62.3755 14.704 62.5835 15.36 63.0315 15.872C63.4635 16.384 64.0395 16.624 64.7755 16.624C65.4955 16.624 66.0715 16.384 66.5195 15.872ZM73.7948 6.784H75.6348V11.504H80.8348V6.784H82.6748V18H80.8348V13.136H75.6348V18H73.7948V6.784ZM85.8126 17.584C85.1726 17.232 84.6926 16.752 84.3406 16.112C83.9886 15.472 83.8286 14.736 83.8286 13.904C83.8286 13.088 83.9886 12.368 84.3406 11.728C84.6926 11.088 85.1726 10.592 85.8126 10.24C86.4526 9.888 87.1726 9.712 88.0046 9.712C88.8206 9.712 89.5406 9.888 90.1806 10.24C90.8206 10.592 91.3006 11.088 91.6526 11.728C92.0046 12.368 92.1806 13.088 92.1806 13.904C92.1806 14.736 92.0046 15.472 91.6526 16.112C91.3006 16.752 90.8206 17.232 90.1806 17.584C89.5406 17.936 88.8206 18.096 88.0046 18.096C87.1726 18.096 86.4526 17.936 85.8126 17.584ZM89.7486 15.872C90.1966 15.36 90.4206 14.704 90.4206 13.904C90.4206 13.104 90.1966 12.464 89.7486 11.952C89.3006 11.44 88.7246 11.184 88.0046 11.184C87.2686 11.184 86.6926 11.44 86.2606 11.952C85.8126 12.464 85.6046 13.104 85.6046 13.904C85.6046 14.704 85.8126 15.36 86.2606 15.872C86.6926 16.384 87.2686 16.624 88.0046 16.624C88.7246 16.624 89.3006 16.384 89.7486 15.872ZM104.81 10.592C105.37 11.168 105.658 12.096 105.658 13.376V18H103.93V13.392C103.93 12.688 103.786 12.144 103.498 11.76C103.21 11.392 102.778 11.2 102.218 11.2C101.61 11.2 101.146 11.424 100.794 11.84C100.442 12.256 100.282 12.832 100.282 13.568V18H98.5381V13.392C98.5381 12.672 98.3781 12.128 98.0901 11.76C97.8021 11.392 97.3701 11.2 96.8101 11.2C96.2181 11.2 95.7541 11.424 95.4021 11.856C95.0501 12.304 94.8901 12.88 94.8901 13.616V18H93.1621V9.808H94.6661L94.8581 10.88C95.4341 10.112 96.2341 9.728 97.2581 9.712C97.8341 9.712 98.3301 9.84 98.7781 10.08C99.2101 10.336 99.5461 10.704 99.7861 11.2C100.074 10.736 100.442 10.368 100.922 10.112C101.386 9.856 101.946 9.712 102.618 9.712C103.514 9.712 104.234 10.016 104.81 10.592ZM107.009 11.712C107.345 11.072 107.809 10.592 108.417 10.24C109.025 9.888 109.713 9.712 110.497 9.712C111.281 9.712 111.969 9.872 112.577 10.192C113.185 10.512 113.649 10.976 114.001 11.552C114.353 12.144 114.529 12.832 114.545 13.616C114.545 13.84 114.529 14.048 114.497 14.272H108.321V14.368C108.353 15.088 108.577 15.648 108.993 16.064C109.393 16.48 109.937 16.688 110.609 16.688C111.137 16.688 111.585 16.576 111.953 16.32C112.305 16.064 112.545 15.712 112.673 15.248H114.401C114.241 16.08 113.841 16.768 113.185 17.296C112.529 17.84 111.713 18.096 110.737 18.096C109.873 18.096 109.137 17.936 108.497 17.584C107.857 17.232 107.377 16.752 107.025 16.112C106.673 15.488 106.513 14.752 106.513 13.92C106.513 13.088 106.673 12.352 107.009 11.712ZM112.785 13.008C112.705 12.416 112.465 11.952 112.065 11.616C111.665 11.28 111.169 11.104 110.561 11.104C109.985 11.104 109.505 11.28 109.089 11.632C108.673 11.984 108.449 12.432 108.385 13.008H112.785Z" fill="#02C568"/>
<path d="M8.8999 7.55999C9.2099 3.95999 11.0599 2.48999 15.1099 2.48999H15.2399C19.7099 2.48999 21.4999 4.27999 21.4999 8.74999V15.27C21.4999 19.74 19.7099 21.53 15.2399 21.53H15.1099C11.0899 21.53 9.2399 20.08 8.9099 16.54" stroke="#02C568" stroke-width="1.5" stroke-linecap="round" stroke-linejoin="round"/>
<path d="M15.0001 12H3.62012" stroke="#02C568" stroke-width="1.5" stroke-linecap="round" stroke-linejoin="round"/>
<path d="M5.85 8.65002L2.5 12L5.85 15.35" stroke="#02C568" stroke-width="1.5" stroke-linecap="round" stroke-linejoin="round"/>
</svg>
