<svg width="22" height="22" viewBox="0 0 22 22" fill="none" xmlns="http://www.w3.org/2000/svg">
<g opacity="0.8" clip-path="url(#clip0_1_1088)">
<path d="M18.2187 2.75003V19.25C18.2187 19.4324 18.1463 19.6072 18.0173 19.7362C17.8884 19.8651 17.7135 19.9375 17.5312 19.9375C17.3489 19.9375 17.174 19.8651 17.0451 19.7362C16.9161 19.6072 16.8437 19.4324 16.8437 19.25V14.4375H12.7187C12.6214 14.4366 12.5253 14.4154 12.4366 14.3755C12.3478 14.3356 12.2683 14.2777 12.2031 14.2055C12.1391 14.1334 12.0908 14.0489 12.0612 13.9571C12.0316 13.8654 12.0214 13.7686 12.0312 13.6727C12.2442 11.9515 12.5831 10.2482 13.0453 8.5766C14.0765 4.93285 15.5117 2.75003 17.2992 2.1055C17.4027 2.06624 17.5143 2.05291 17.6241 2.06665C17.734 2.0804 17.8389 2.12081 17.9295 2.18437C18.0202 2.24793 18.094 2.3327 18.1444 2.43129C18.1948 2.52989 18.2203 2.63931 18.2187 2.75003ZM10.9914 6.76331L10.3039 2.63831C10.2892 2.54916 10.2571 2.46377 10.2094 2.38701C10.1617 2.31026 10.0994 2.24364 10.026 2.19098C9.95259 2.13831 9.86952 2.10062 9.78154 2.08005C9.69355 2.05949 9.60238 2.05645 9.51322 2.07113C9.33317 2.10076 9.17226 2.2007 9.06589 2.34897C8.95952 2.49724 8.91641 2.68169 8.94604 2.86175L9.50463 6.18753H7.90619V2.75003C7.90619 2.5677 7.83376 2.39283 7.70483 2.2639C7.5759 2.13496 7.40103 2.06253 7.21869 2.06253C7.03636 2.06253 6.86149 2.13496 6.73256 2.2639C6.60363 2.39283 6.53119 2.5677 6.53119 2.75003V6.18753H4.93276L5.49135 2.86175C5.50602 2.7726 5.50299 2.68142 5.48242 2.59344C5.46186 2.50546 5.42417 2.42239 5.3715 2.34897C5.31883 2.27555 5.25222 2.21323 5.17546 2.16556C5.09871 2.11788 5.01332 2.0858 4.92416 2.07113C4.83501 2.05645 4.74384 2.05949 4.65585 2.08005C4.56787 2.10062 4.4848 2.13831 4.41138 2.19098C4.33797 2.24364 4.27564 2.31026 4.22797 2.38701C4.1803 2.46377 4.14821 2.54916 4.13354 2.63831L3.44604 6.76331C3.43821 6.8 3.43532 6.83758 3.43744 6.87503C3.43844 7.75867 3.74817 8.61418 4.31309 9.29364C4.87801 9.97311 5.66259 10.4338 6.53119 10.5961V19.25C6.53119 19.4324 6.60363 19.6072 6.73256 19.7362C6.86149 19.8651 7.03636 19.9375 7.21869 19.9375C7.40103 19.9375 7.5759 19.8651 7.70483 19.7362C7.83376 19.6072 7.90619 19.4324 7.90619 19.25V10.5961C8.77479 10.4338 9.55938 9.97311 10.1243 9.29364C10.6892 8.61418 10.9989 7.75867 10.9999 6.87503C11.0013 6.84043 10.9984 6.8058 10.9914 6.77191V6.76331Z" fill="#FFFDF9"/>
</g>
<defs>
<clipPath id="clip0_1_1088">
<rect width="22" height="22" fill="white"/>
</clipPath>
</defs>
</svg>
