<svg width="22" height="22" viewBox="0 0 22 22" fill="none" xmlns="http://www.w3.org/2000/svg">
<g opacity="0.8">
<path d="M20.6765 11C20.6786 11.2819 20.5928 11.5575 20.4311 11.7885C20.2694 12.0195 20.0398 12.1944 19.7742 12.289L14.2828 14.2828L12.289 19.7742C12.1913 20.0373 12.0155 20.2643 11.785 20.4245C11.5546 20.5848 11.2806 20.6707 11 20.6707C10.7193 20.6707 10.4453 20.5848 10.2149 20.4245C9.98444 20.2643 9.80857 20.0373 9.7109 19.7742L7.71715 14.2828L2.22574 12.289C1.9626 12.1913 1.73565 12.0155 1.57539 11.785C1.41513 11.5546 1.32922 11.2806 1.32922 11C1.32922 10.7193 1.41513 10.4453 1.57539 10.2149C1.73565 9.98444 1.9626 9.80857 2.22574 9.7109L7.71715 7.71715L9.7109 2.22574C9.80857 1.9626 9.98444 1.73565 10.2149 1.57539C10.4453 1.41513 10.7193 1.32922 11 1.32922C11.2806 1.32922 11.5546 1.41513 11.785 1.57539C12.0155 1.73565 12.1913 1.9626 12.289 2.22574L14.2828 7.71715L19.7742 9.7109C20.0398 9.80548 20.2694 9.9804 20.4311 10.2114C20.5928 10.4424 20.6786 10.718 20.6765 11Z" fill="#FFFDF9"/>
</g>
</svg>
