<svg width="22" height="22" viewBox="0 0 22 22" fill="none" xmlns="http://www.w3.org/2000/svg">
<g opacity="0.8">
<path d="M17.7284 13.2825L16.8117 11.7609C16.6192 11.4217 16.445 10.78 16.445 10.4042V8.08504C16.445 5.93087 15.18 4.07004 13.3559 3.19921C12.8792 2.35587 11.9992 1.83337 10.9909 1.83337C9.99169 1.83337 9.09336 2.37421 8.61669 3.22671C6.8292 4.11587 5.5917 5.95837 5.5917 8.08504V10.4042C5.5917 10.78 5.41753 11.4217 5.22503 11.7517L4.2992 13.2825C3.93253 13.8967 3.85003 14.575 4.0792 15.1984C4.2992 15.8125 4.8217 16.2892 5.50003 16.5184C7.27836 17.1234 9.14836 17.4167 11.0184 17.4167C12.8884 17.4167 14.7584 17.1234 16.5367 16.5275C17.1784 16.3167 17.6734 15.8309 17.9117 15.1984C18.15 14.5659 18.0859 13.8692 17.7284 13.2825Z" fill="#FFFDF9"/>
<path d="M13.5942 18.3425C13.2092 19.4059 12.1917 20.1667 11 20.1667C10.2759 20.1667 9.56087 19.8734 9.05671 19.3509C8.76337 19.0759 8.54337 18.7092 8.41504 18.3334C8.53421 18.3517 8.65337 18.3609 8.78171 18.3792C8.99254 18.4067 9.21254 18.4342 9.43254 18.4525C9.95504 18.4984 10.4867 18.5259 11.0184 18.5259C11.5409 18.5259 12.0634 18.4984 12.5767 18.4525C12.7692 18.4342 12.9617 18.425 13.145 18.3975C13.2917 18.3792 13.4384 18.3609 13.5942 18.3425Z" fill="#FFFDF9"/>
</g>
</svg>
