<svg width="16" height="16" viewBox="0 0 16 16" fill="none" xmlns="http://www.w3.org/2000/svg">
<path d="M14.6168 1.39226C12.7823 -0.442185 11.0061 -0.485862 9.128 1.39226L7.97782 2.54243C7.87591 2.64435 7.84682 2.78994 7.87594 2.92097C8.58934 5.42514 10.5839 7.41973 13.0881 8.13313C13.1172 8.14769 13.1609 8.14769 13.2045 8.14769C13.3064 8.14769 13.4084 8.10401 13.4812 8.03122L14.6168 6.89561C15.5486 5.96382 15.9999 5.07572 15.9999 4.17305C15.9999 3.22671 15.5486 2.32405 14.6168 1.39226Z" fill="white"/>
<path d="M11.3979 8.97744C11.1213 8.84641 10.8592 8.71538 10.6117 8.55523C10.4079 8.43876 10.2041 8.30772 10.0148 8.16213C9.85466 8.06022 9.66536 7.91463 9.47609 7.75448C9.44697 7.73992 9.38875 7.69624 9.31596 7.60889C9.01022 7.34682 8.66078 6.99741 8.34048 6.63343C8.31136 6.61887 8.26769 6.54607 8.20945 6.45872C8.10754 6.34224 7.96196 6.15298 7.81637 5.94915C7.6999 5.80356 7.56887 5.59973 7.45239 5.3959C7.3068 5.1484 7.16121 4.88633 7.04474 4.62427C6.91371 4.33309 6.81178 4.07102 6.70987 3.80896L1.2211 9.29774C0.857121 9.66172 0.522264 10.3314 0.449468 10.8264L0.0272417 13.8547C-0.0746721 14.4953 0.114577 15.0923 0.507673 15.4999C0.842532 15.8348 1.30846 16.0095 1.81803 16.0095C1.9345 16.0095 2.03639 15.9949 2.15286 15.9804L5.18118 15.5582C5.67619 15.4854 6.34589 15.1505 6.70987 14.7865L12.1987 9.29774C11.9366 9.19583 11.6745 9.09392 11.3979 8.97744Z" fill="white"/>
</svg>
