<svg width="24" height="24" viewBox="0 0 24 24" fill="none" xmlns="http://www.w3.org/2000/svg">
<path d="M20.3601 12.7299C19.9901 12.7299 19.6801 12.45 19.6401 12.08C19.4001 9.87995 18.2201 7.89995 16.4001 6.63995C16.0701 6.40995 15.9901 5.95995 16.2201 5.62995C16.4501 5.29995 16.9001 5.21995 17.2301 5.44995C19.4001 6.95995 20.8001 9.31995 21.0901 11.93C21.1301 12.33 20.8401 12.6899 20.4401 12.7299C20.4101 12.7299 20.3901 12.7299 20.3601 12.7299Z" fill="white"/>
<path d="M3.7398 12.78C3.7198 12.78 3.6898 12.78 3.6698 12.78C3.2698 12.74 2.9798 12.38 3.0198 11.98C3.2898 9.36996 4.6698 7.00996 6.8198 5.48996C7.1398 5.25996 7.5998 5.33996 7.8298 5.65996C8.0598 5.98996 7.9798 6.43996 7.6598 6.66996C5.8598 7.94996 4.6898 9.92996 4.4698 12.12C4.4298 12.5 4.1098 12.78 3.7398 12.78Z" fill="white"/>
<path d="M15.9901 21.1C14.7601 21.69 13.4401 21.99 12.0601 21.99C10.6201 21.99 9.2501 21.67 7.9701 21.02C7.6101 20.85 7.4701 20.41 7.6501 20.05C7.8201 19.69 8.2601 19.55 8.6201 19.72C9.2501 20.04 9.9201 20.26 10.6001 20.39C11.5201 20.57 12.4601 20.58 13.3801 20.42C14.0601 20.3 14.7301 20.09 15.3501 19.79C15.7201 19.62 16.1601 19.76 16.3201 20.13C16.5001 20.49 16.3601 20.93 15.9901 21.1Z" fill="white"/>
<path d="M12.05 2.01001C10.5 2.01001 9.22998 3.27001 9.22998 4.83001C9.22998 6.39001 10.49 7.65001 12.05 7.65001C13.61 7.65001 14.87 6.39001 14.87 4.83001C14.87 3.27001 13.61 2.01001 12.05 2.01001Z" fill="white"/>
<path d="M5.04998 13.87C3.49998 13.87 2.22998 15.13 2.22998 16.69C2.22998 18.25 3.48998 19.51 5.04998 19.51C6.60998 19.51 7.86998 18.25 7.86998 16.69C7.86998 15.13 6.59998 13.87 5.04998 13.87Z" fill="white"/>
<path d="M18.9499 13.87C17.3999 13.87 16.1299 15.13 16.1299 16.69C16.1299 18.25 17.3899 19.51 18.9499 19.51C20.5099 19.51 21.7699 18.25 21.7699 16.69C21.7699 15.13 20.5099 13.87 18.9499 13.87Z" fill="white"/>
</svg>
