<svg width="19" height="19" viewBox="0 0 19 19" fill="none" xmlns="http://www.w3.org/2000/svg">
<path d="M8.32034 8.88242L6.57867 1.892C6.53909 1.70992 6.37284 1.58325 6.18284 1.58325C3.64159 1.58325 1.58325 3.64159 1.58325 6.18284V10.6953C1.58325 10.9645 1.8445 11.1624 2.10575 11.0833L8.04325 9.36534C8.24909 9.30992 8.37575 9.09617 8.32034 8.88242Z" fill="#FEC66F"/>
<path d="M8.80325 10.8301C8.74784 10.6084 8.51825 10.4738 8.29659 10.5372L1.87617 12.4055C1.702 12.4609 1.58325 12.6193 1.58325 12.8013V12.8172C1.58325 15.3584 3.64159 17.4168 6.18284 17.4168H9.9195C10.1808 17.4168 10.3787 17.1713 10.3153 16.9101L8.80325 10.8301Z" fill="#FEC66F"/>
<path d="M12.817 1.58325H8.26491C8.00366 1.58325 7.80574 1.82867 7.86907 2.08992L11.6216 17.1078C11.6691 17.2899 11.8274 17.4166 12.0174 17.4166H12.8091C15.3582 17.4166 17.4166 15.3583 17.4166 12.817V6.18284C17.4166 3.64159 15.3582 1.58325 12.817 1.58325Z" fill="#FEC66F"/>
</svg>
