<svg width="20" height="20" viewBox="0 0 20 20" fill="none" xmlns="http://www.w3.org/2000/svg">
<path d="M10.0001 1.66675C5.40008 1.66675 1.66675 5.40008 1.66675 10.0001C1.66675 14.6001 5.40008 18.3334 10.0001 18.3334C14.6001 18.3334 18.3334 14.6001 18.3334 10.0001C18.3334 5.40008 14.6001 1.66675 10.0001 1.66675ZM7.50008 6.66675C7.95841 6.66675 8.33341 7.04175 8.33341 7.50008C8.33341 7.95841 7.96675 8.33341 7.50008 8.33341C7.04175 8.33341 6.66675 7.95841 6.66675 7.50008C6.66675 7.04175 7.04175 6.66675 7.50008 6.66675ZM7.94175 12.9417C7.81675 13.0667 7.65841 13.1251 7.50008 13.1251C7.34175 13.1251 7.18341 13.0667 7.05841 12.9417C6.81675 12.7001 6.81675 12.3001 7.05841 12.0584L12.0584 7.05841C12.3001 6.81675 12.7001 6.81675 12.9417 7.05841C13.1834 7.30008 13.1834 7.70008 12.9417 7.94175L7.94175 12.9417ZM12.5001 13.3334C12.0334 13.3334 11.6584 12.9584 11.6584 12.5001C11.6584 12.0417 12.0334 11.6667 12.4917 11.6667C12.9501 11.6667 13.3251 12.0417 13.3251 12.5001C13.3251 12.9584 12.9584 13.3334 12.5001 13.3334Z" fill="#FEC66F"/>
</svg>
