<svg width="20" height="20" viewBox="0 0 20 20" fill="none" xmlns="http://www.w3.org/2000/svg">
<path d="M2.29176 15.5416C1.95009 15.5416 1.66676 15.2583 1.66676 14.9166V10.1666C1.62509 7.90825 2.46676 5.77492 4.03343 4.17492C5.60009 2.58325 7.70009 1.70825 9.95843 1.70825C14.5751 1.70825 18.3334 5.46659 18.3334 10.0833V14.8333C18.3334 15.1749 18.0501 15.4583 17.7084 15.4583C17.3668 15.4583 17.0834 15.1749 17.0834 14.8333V10.0833C17.0834 6.15825 13.8918 2.95825 9.95843 2.95825C8.03343 2.95825 6.25009 3.69992 4.92509 5.04992C3.59176 6.40825 2.88343 8.21659 2.91676 10.1499V14.9083C2.91676 15.2583 2.64176 15.5416 2.29176 15.5416Z" fill="#FEC66F"/>
<path d="M4.95008 10.375H4.84175C3.09175 10.375 1.66675 11.8 1.66675 13.55V15.1167C1.66675 16.8667 3.09175 18.2917 4.84175 18.2917H4.95008C6.70008 18.2917 8.12508 16.8667 8.12508 15.1167V13.55C8.12508 11.8 6.70008 10.375 4.95008 10.375Z" fill="#FEC66F"/>
<path d="M15.1583 10.375H15.05C13.3 10.375 11.875 11.8 11.875 13.55V15.1167C11.875 16.8667 13.3 18.2917 15.05 18.2917H15.1583C16.9083 18.2917 18.3333 16.8667 18.3333 15.1167V13.55C18.3333 11.8 16.9083 10.375 15.1583 10.375Z" fill="#FEC66F"/>
</svg>
