<svg width="19" height="19" viewBox="0 0 19 19" fill="none" xmlns="http://www.w3.org/2000/svg">
<path d="M12.817 1.58325H6.18284C3.30117 1.58325 1.58325 3.30117 1.58325 6.18284V12.8091C1.58325 15.6987 3.30117 17.4166 6.18284 17.4166H12.8091C15.6908 17.4166 17.4087 15.6987 17.4087 12.817V6.18284C17.4166 3.30117 15.6987 1.58325 12.817 1.58325ZM13.4583 13.8303C12.1045 13.8303 10.8378 13.2445 9.8245 12.1599C8.67658 13.197 7.18034 13.8303 5.54158 13.8303C5.217 13.8303 4.94784 13.5612 4.94784 13.2366C4.94784 12.912 5.217 12.6428 5.54158 12.6428C8.28867 12.6428 10.5608 10.4658 10.8537 7.67908H9.49992H5.5495C5.22492 7.67908 4.95575 7.40992 4.95575 7.08533C4.95575 6.76075 5.22492 6.4995 5.5495 6.4995H8.90617V5.76325C8.90617 5.43867 9.17533 5.1695 9.49992 5.1695C9.8245 5.1695 10.0937 5.43867 10.0937 5.76325V6.4995H11.4316C11.4474 6.4995 11.4633 6.49158 11.4791 6.49158C11.4949 6.49158 11.5108 6.4995 11.5266 6.4995H13.4503C13.7749 6.4995 14.0441 6.76867 14.0441 7.09325C14.0441 7.41784 13.7749 7.687 13.4503 7.687H12.0412C11.9224 9.04075 11.4158 10.2837 10.6399 11.297C11.4316 12.1758 12.4212 12.6508 13.4583 12.6508C13.7828 12.6508 14.052 12.9199 14.052 13.2445C14.052 13.5691 13.7828 13.8303 13.4583 13.8303Z" fill="#FEC66F"/>
</svg>
