<svg width="20" height="20" viewBox="0 0 20 20" fill="none" xmlns="http://www.w3.org/2000/svg">
<path d="M13.4917 1.66675H6.50841C3.47508 1.66675 1.66675 3.47508 1.66675 6.50841V13.4917C1.66675 16.5251 3.47508 18.3334 6.50841 18.3334H13.4917C16.5251 18.3334 18.3334 16.5251 18.3334 13.4917V6.50841C18.3334 3.47508 16.5251 1.66675 13.4917 1.66675ZM8.30841 12.4167L6.43341 14.2917C6.30841 14.4167 6.15008 14.4751 5.99175 14.4751C5.83341 14.4751 5.66675 14.4167 5.55008 14.2917L4.92508 13.6667C4.67508 13.4251 4.67508 13.0251 4.92508 12.7834C5.16675 12.5417 5.55841 12.5417 5.80841 12.7834L5.99175 12.9667L7.42508 11.5334C7.66675 11.2917 8.05841 11.2917 8.30841 11.5334C8.55008 11.7751 8.55008 12.1751 8.30841 12.4167ZM8.30841 6.58341L6.43341 8.45841C6.30841 8.58341 6.15008 8.64175 5.99175 8.64175C5.83341 8.64175 5.66675 8.58341 5.55008 8.45841L4.92508 7.83341C4.67508 7.59175 4.67508 7.19175 4.92508 6.95008C5.16675 6.70841 5.55841 6.70841 5.80841 6.95008L5.99175 7.13341L7.42508 5.70008C7.66675 5.45841 8.05841 5.45841 8.30841 5.70008C8.55008 5.94175 8.55008 6.34175 8.30841 6.58341ZM14.6334 13.8501H10.2584C9.91675 13.8501 9.63341 13.5667 9.63341 13.2251C9.63341 12.8834 9.91675 12.6001 10.2584 12.6001H14.6334C14.9834 12.6001 15.2584 12.8834 15.2584 13.2251C15.2584 13.5667 14.9834 13.8501 14.6334 13.8501ZM14.6334 8.01675H10.2584C9.91675 8.01675 9.63341 7.73341 9.63341 7.39175C9.63341 7.05008 9.91675 6.76675 10.2584 6.76675H14.6334C14.9834 6.76675 15.2584 7.05008 15.2584 7.39175C15.2584 7.73341 14.9834 8.01675 14.6334 8.01675Z" fill="#FEC66F"/>
</svg>
