<svg width="20" height="20" viewBox="0 0 20 20" fill="none" xmlns="http://www.w3.org/2000/svg">
<path d="M18.3167 9.50829C18.0334 4.67496 13.6417 0.949968 8.58341 1.7833C5.10008 2.3583 2.30841 5.18328 1.76675 8.66662C1.45008 10.6833 1.86677 12.5916 2.7751 14.1666L2.03342 16.925C1.86675 17.55 2.44174 18.1166 3.0584 17.9416L5.77508 17.1916C7.00841 17.9166 8.45008 18.3333 9.99174 18.3333C14.6917 18.3333 18.5917 14.1916 18.3167 9.50829ZM14.0668 13.1C13.9918 13.25 13.9001 13.3916 13.7834 13.525C13.5751 13.75 13.3501 13.9166 13.1001 14.0166C12.8501 14.125 12.5751 14.175 12.2834 14.175C11.8584 14.175 11.4001 14.075 10.9251 13.8666C10.4417 13.6583 9.96676 13.3833 9.49176 13.0416C9.00843 12.6916 8.55842 12.3 8.12508 11.875C7.69175 11.4416 7.3084 10.9833 6.9584 10.5083C6.61673 10.0333 6.34175 9.55828 6.14175 9.08328C5.94175 8.60828 5.84176 8.14996 5.84176 7.71663C5.84176 7.4333 5.89175 7.1583 5.99175 6.9083C6.09175 6.64996 6.2501 6.41663 6.4751 6.2083C6.74177 5.94163 7.03342 5.81663 7.34175 5.81663C7.45842 5.81663 7.57506 5.84163 7.68339 5.89163C7.79173 5.94163 7.89175 6.01663 7.96675 6.12496L8.93339 7.49161C9.00839 7.59995 9.06674 7.69162 9.10007 7.78329C9.14174 7.87495 9.15841 7.95828 9.15841 8.04162C9.15841 8.14162 9.12509 8.24163 9.06676 8.34163C9.00842 8.44163 8.9334 8.54162 8.8334 8.64162L8.51673 8.97495C8.46673 9.02495 8.4501 9.07496 8.4501 9.14162C8.4501 9.17496 8.4584 9.20829 8.46673 9.24162C8.4834 9.27495 8.49176 9.29996 8.5001 9.32496C8.5751 9.46662 8.7084 9.64161 8.89174 9.85828C9.0834 10.0749 9.28344 10.3 9.50011 10.5166C9.72511 10.7416 9.94176 10.9416 10.1668 11.1333C10.3834 11.3166 10.5667 11.4416 10.7084 11.5166C10.7334 11.525 10.7584 11.5416 10.7834 11.5499C10.8168 11.5666 10.8501 11.5666 10.8918 11.5666C10.9668 11.5666 11.0168 11.5416 11.0668 11.4916L11.3834 11.175C11.4917 11.0666 11.5918 10.9916 11.6834 10.9416C11.7834 10.8833 11.8751 10.8499 11.9834 10.8499C12.0668 10.8499 12.1501 10.8666 12.2418 10.9083C12.3334 10.95 12.4334 11 12.5334 11.075L13.9168 12.0583C14.0251 12.1333 14.1001 12.225 14.1501 12.325C14.1917 12.4333 14.2167 12.5333 14.2167 12.65C14.1667 12.7916 14.1334 12.95 14.0668 13.1Z" fill="#FEC66F"/>
</svg>
